<?xml version="1.0" encoding="UTF-8" standalone="no"?>
<!-- Created with Inkscape (http://www.inkscape.org/) -->

<svg
   xmlns:dc="http://purl.org/dc/elements/1.1/"
   xmlns:cc="http://creativecommons.org/ns#"
   xmlns:rdf="http://www.w3.org/1999/02/22-rdf-syntax-ns#"
   xmlns:svg="http://www.w3.org/2000/svg"
   xmlns="http://www.w3.org/2000/svg"
   xmlns:sodipodi="http://sodipodi.sourceforge.net/DTD/sodipodi-0.dtd"
   xmlns:inkscape="http://www.inkscape.org/namespaces/inkscape"
   width="210mm"
   height="297mm"
   viewBox="0 0 210 297"
   version="1.1"
   id="svg8"
   inkscape:version="0.92.3 (2405546, 2018-03-11)"
   sodipodi:docname="shake_logo.svg"
   inkscape:export-filename="C:\Users\scriplez\Desktop\shake_logo.png"
   inkscape:export-xdpi="176.49081"
   inkscape:export-ydpi="176.49081">
  <defs
     id="defs2" />
  <sodipodi:namedview
     id="base"
     pagecolor="#ffffff"
     bordercolor="#666666"
     borderopacity="1.0"
     inkscape:pageopacity="0.0"
     inkscape:pageshadow="2"
     inkscape:zoom="0.72061302"
     inkscape:cx="398.14155"
     inkscape:cy="963.91049"
     inkscape:document-units="mm"
     inkscape:current-layer="layer1"
     showgrid="false"
     inkscape:window-width="1920"
     inkscape:window-height="1017"
     inkscape:window-x="1672"
     inkscape:window-y="-8"
     inkscape:window-maximized="1"
     inkscape:snap-global="false"
     showguides="false" />
  <metadata
     id="metadata5">
    <rdf:RDF>
      <cc:Work
         rdf:about="">
        <dc:format>image/svg+xml</dc:format>
        <dc:type
           rdf:resource="http://purl.org/dc/dcmitype/StillImage" />
        <dc:title />
      </cc:Work>
    </rdf:RDF>
  </metadata>
  <g
     inkscape:label="Layer 1"
     inkscape:groupmode="layer"
     id="layer1">
    <g
       id="g1305"
       transform="matrix(0.98701374,0.04104072,-0.03178247,0.97289497,0.96549398,-1.210172)">
      <g
         id="g1202">
        <g
           id="g1109"
           transform="rotate(40.543133,99.640462,25.049521)">
          <g
             style="fill:#f7bae3;fill-opacity:1"
             transform="matrix(1.1273365,-0.00444785,0.00517823,1.1910129,-43.28385,-50.563406)"
             id="g980">
            <path
               style="fill:#f7bae3;fill-opacity:1;stroke:#d596e5;stroke-width:0.52643055;stroke-miterlimit:4;stroke-dasharray:none;stroke-opacity:1"
               d="m 149.38138,76.058513 a 19.437033,6.218258 0 0 0 -19.43706,6.218164 19.437033,6.218258 0 0 0 0.0129,0.115257 h 38.84311 a 19.437033,6.218258 0 0 0 0.0181,-0.115257 19.437033,6.218258 0 0 0 -19.43705,-6.218164 z"
               id="path968"
               inkscape:connector-curvature="0" />
            <rect
               style="fill:#f7bae3;fill-opacity:1;stroke:none;stroke-width:3.0999999;stroke-miterlimit:4;stroke-dasharray:none;stroke-opacity:1"
               id="rect973"
               width="4.3678722"
               height="26.061638"
               x="147.48849"
               y="79.771149"
               ry="0.8159591" />
            <ellipse
               style="fill:#f7bae3;fill-opacity:1;stroke:none;stroke-width:3.0999999;stroke-miterlimit:4;stroke-dasharray:none;stroke-opacity:1"
               id="path975"
               cx="149.56322"
               cy="76.240456"
               rx="2.293133"
               ry="1.3467606" />
          </g>
          <path
             transform="scale(0.26458333)"
             id="path1081"
             d="m 475.13281,143.51172 a 6.0624536,9.770656 89.788372 0 0 -3.56836,0.43945 6.0624446,8.9562357 89.737936 0 1 5.54493,5.02539 27.991497,75.914763 89.750512 0 1 66.40234,27.44532 27.991497,75.914763 89.750512 0 1 -0.0684,0.51953 l -66.17774,0.28515 0.40626,101.84375 c 0.008,2.03485 -1.48633,3.67957 -3.35157,3.6875 l -4.03125,0.0176 c 0.0945,0.007 0.18487,0.0277 0.28125,0.0273 l 11.26563,-0.0449 c 2.03485,-0.008 3.66509,-1.65265 3.65625,-3.6875 l -0.44336,-101.84375 72.19531,-0.28515 a 27.991539,82.817944 89.776916 0 0 0.0742,-0.51953 27.991539,82.817944 89.776916 0 0 -72.44141,-27.44532 6.0624536,9.770656 89.788372 0 0 -9.74414,-5.46484 z m -14.92383,33.78711 -68.46679,0.29492 68.46679,-0.26953 z"
             style="fill:#f390c3;fill-opacity:1;stroke:none;stroke-width:17.07521057;stroke-miterlimit:4;stroke-dasharray:none;stroke-opacity:1"
             inkscape:connector-curvature="0" />
        </g>
        <path
           inkscape:connector-curvature="0"
           style="fill:#fbdef2;fill-opacity:1;stroke:none;stroke-width:3.84916043;stroke-miterlimit:4;stroke-dasharray:none;stroke-opacity:1"
           d="m 93.160004,44.072588 a 18.585192,6.3384651 43.721361 0 0 -2.400163,0.951723 18.585192,6.3384651 43.721361 0 0 -0.06358,0.101294 l 0.431112,0.402884 0.06947,-0.05479 -0.02147,-0.02025 a 18.585192,6.3384651 43.721361 0 1 0.06358,-0.101297 18.585192,6.3384651 43.721361 0 1 11.514557,2.8676 18.585192,6.3384651 43.721361 0 0 -9.593499,-4.147153 z"
           id="path1192" />
        <path
           style="fill:#fbdef2;fill-opacity:1;stroke:none;stroke-width:4.51781607;stroke-miterlimit:4;stroke-dasharray:none;stroke-opacity:1"
           d="m 111.17418,52.0195 a 2.5851527,1.6040242 40.516673 0 0 -2.64029,-0.466996 21.912248,7.4060946 40.505217 0 1 0.53401,0.408743 2.5851527,1.6040242 40.516673 0 1 2.10628,0.05825 z"
           id="path1185"
           inkscape:connector-curvature="0" />
      </g>
      <path
         inkscape:connector-curvature="0"
         id="path1204"
         d="m 103.48439,57.082364 c 0.16132,0.161316 3.7506,3.105338 3.7506,3.105338 l -1.00822,0.685593 z"
         style="fill:#f390c3;fill-opacity:1;stroke:none;stroke-width:0.26458332px;stroke-linecap:butt;stroke-linejoin:miter;stroke-opacity:1" />
    </g>
    <ellipse
       ry="2.9100692"
       rx="24.575956"
       cy="107.07741"
       cx="79.397438"
       id="ellipse1115"
       style="fill:#dfdfdf;fill-opacity:1;stroke:none;stroke-width:0.26936942;stroke-miterlimit:4;stroke-dasharray:none;stroke-opacity:1" />
    <ellipse
       ry="32.842003"
       rx="35.339062"
       cy="88.644226"
       cx="78.223938"
       id="ellipse1293"
       style="fill:none;fill-opacity:1;stroke:#d596e5;stroke-width:1.74857342;stroke-miterlimit:4;stroke-dasharray:none;stroke-opacity:1" />
    <path
       style="fill:#94e4bc;fill-opacity:1;stroke:#d596e5;stroke-width:0.7;stroke-miterlimit:4;stroke-dasharray:none;stroke-opacity:1"
       d="M 53.112002,48.945331 A 12.985436,12.985436 0 0 0 40.12675,61.930586 12.985436,12.985436 0 0 0 53.112002,74.916357 12.985436,12.985436 0 0 0 66.097773,61.930586 12.985436,12.985436 0 0 0 53.112002,48.945331 Z"
       id="circle884"
       inkscape:connector-curvature="0" />
    <path
       style="fill:#7bdeb1;fill-opacity:1;stroke:none;stroke-width:0.3691991"
       d="m 53.112003,49.334768 a 12.985436,12.985436 0 0 0 -0.884701,0.04444 11.221944,12.985436 0 0 1 10.343555,12.940813 11.221944,12.985436 0 0 1 -10.467578,12.942363 12.985436,12.985436 0 0 0 1.008724,0.04341 A 12.985436,12.985436 0 0 0 66.097774,62.320023 12.985436,12.985436 0 0 0 53.112003,49.334768 Z"
       id="path1076"
       inkscape:connector-curvature="0" />
    <g
       id="g957"
       style="fill:#f7f9bf;fill-opacity:1"
       transform="matrix(-0.81017177,0.776059,0.56890733,0.87779463,102.70136,-52.149604)" />
    <g
       id="g1311"
       transform="matrix(0.89932621,-0.06311984,0.06757938,0.96286535,2.2191838,7.399683)">
      <g
         style="fill:#f9c4bf;fill-opacity:1"
         transform="matrix(-1,0,0,1,213.44024,-16.608793)"
         id="g988">
        <path
           id="rect982"
           transform="matrix(-0.26458333,0,0,0.26458333,213.44024,16.608793)"
           d="m 236.66016,146.11914 c -1.79243,0 -3.23438,1.44195 -3.23438,3.23438 v 24.55468 c 0,1.79243 1.44195,3.23438 3.23438,3.23438 h 51.33007 v 144.88281 c 0,1.7085 1.37549,3.08399 3.08399,3.08399 h 26.9375 c 1.7085,0 3.08398,-1.37549 3.08398,-3.08399 V 149.20312 c 0,-1.7085 -1.37548,-3.08398 -3.08398,-3.08398 h -5.08984 -21.84766 z"
           style="fill:#f9c4bf;fill-opacity:1;stroke:#d596e5;stroke-width:2.64566922;stroke-miterlimit:4;stroke-dasharray:none;stroke-opacity:1"
           inkscape:connector-curvature="0" />
      </g>
      <g
         style="fill:#f7b2a0;fill-opacity:1"
         transform="matrix(-1,0,0,1,213.18062,-16.349169)"
         id="g1052">
        <path
           inkscape:connector-curvature="0"
           id="rect1048"
           d="m 132.08745,55.326516 c -0.39804,0 -0.7183,0.363931 -0.7183,0.815969 v 45.725895 c 0,0.45204 0.32026,0.81597 0.7183,0.81597 h -2.67374 c -0.45204,0 -0.81597,-0.36393 -0.81597,-0.81597 V 56.142485 c 0,-0.452038 0.36393,-0.815969 0.81597,-0.815969 h 1.34668 z"
           style="fill:#f7b2a0;fill-opacity:1;stroke:none;stroke-width:2.98111081;stroke-miterlimit:4;stroke-dasharray:none;stroke-opacity:1" />
      </g>
    </g>
    <ellipse
       style="fill:#bad8f7;fill-opacity:1;stroke:none;stroke-width:1.08513498;stroke-miterlimit:4;stroke-dasharray:none;stroke-opacity:1"
       id="path1029"
       cx="78.223938"
       cy="88.644226"
       rx="35.339062"
       ry="32.842003" />
    <path
       style="fill:#9ec8f4;fill-opacity:1;stroke:none;stroke-width:1.08513498;stroke-miterlimit:4;stroke-dasharray:none;stroke-opacity:1"
       d="m 78.224164,55.802477 a 35.339062,32.842002 0 0 0 -1.400241,0.04575 33.012471,32.842002 0 0 1 32.085857,32.796041 33.012471,32.842002 0 0 1 -31.689105,32.795412 35.339062,32.842002 0 0 0 1.003489,0.0464 A 35.339062,32.842002 0 0 0 113.56298,88.644264 35.339062,32.842002 0 0 0 78.224164,55.802477 Z"
       id="ellipse1031"
       inkscape:connector-curvature="0" />
    <g
       id="g1290"
       transform="matrix(1.8358602,0,0,1.8358602,-50.24052,-54.04153)">
      <ellipse
         transform="rotate(37.019887)"
         ry="2.2673607"
         rx="1.5115737"
         cy="16.517813"
         cx="85.294403"
         id="path1111"
         style="fill:#fef6fc;fill-opacity:1;stroke:none;stroke-width:1;stroke-miterlimit:4;stroke-dasharray:none;stroke-opacity:1" />
      <ellipse
         ry="0.69280463"
         rx="0.62982243"
         cy="67.881416"
         cx="55.384857"
         id="path1113"
         style="fill:#fef6fc;fill-opacity:1;stroke:none;stroke-width:1;stroke-miterlimit:4;stroke-dasharray:none;stroke-opacity:1" />
    </g>
    <path
       style="fill:#e0fce7;fill-opacity:1;stroke:none;stroke-width:0.32235336"
       d="m 52.602235,49.724235 a 10.96508,11.723153 0 0 0 -10.964925,11.722989 10.96508,11.723153 0 0 0 2.302249,7.164049 11.109561,12.186558 0 0 1 -1.724506,-6.494578 11.109561,12.186558 0 0 1 11.1098,-12.18672 11.109561,12.186558 0 0 1 2.533087,0.335902 10.96508,11.723153 0 0 0 -3.255705,-0.541642 z"
       id="path1125"
       inkscape:connector-curvature="0" />
    <g
       id="g1286"
       transform="matrix(1.1326175,0,0,1.3570936,-12.051636,-25.080757)">
      <path
         style="fill:#000000;fill-opacity:0.15656565;stroke:none;stroke-width:1.50285625;stroke-linecap:butt;stroke-linejoin:miter;stroke-miterlimit:4;stroke-dasharray:none;stroke-opacity:1"
         d="M 79.329368,55.3507 111.33816,75.880712 82.829618,83.140145 95.126189,95.733725 56.457463,108.17766 71.502804,89.032819 64.743311,79.913632 Z"
         id="path1282"
         inkscape:connector-curvature="0"
         sodipodi:nodetypes="cccccccc" />
      <path
         sodipodi:nodetypes="cccccccc"
         inkscape:connector-curvature="0"
         id="path998"
         d="M 77.960554,52.841208 109.96935,73.37122 81.460804,80.630653 93.757375,93.224233 55.088649,105.66817 70.13399,86.523327 63.374497,77.40414 Z"
         style="fill:#f2f590;fill-opacity:1;stroke:#e18892;stroke-width:0.96963882;stroke-linecap:butt;stroke-linejoin:miter;stroke-miterlimit:4;stroke-dasharray:none;stroke-opacity:1" />
    </g>
  </g>
</svg>
